<svg width="42" height="42" viewBox="0 0 42 42" fill="none" xmlns="http://www.w3.org/2000/svg">
<circle cx="21" cy="21" r="21" fill="#EBEBF4"/>
<path d="M30.9837 20.064C31.3946 19.6635 31.5396 19.0758 31.3624 18.5295C31.1847 17.9832 30.722 17.5932 30.1535 17.5104L25.099 16.776C24.8837 16.7446 24.6977 16.6096 24.6016 16.4144L22.3419 11.8343C22.0881 11.3198 21.5732 11 20.9992 11C20.4257 11 19.9108 11.3198 19.657 11.8343L17.3969 16.4144C17.3007 16.6096 17.1143 16.7446 16.899 16.776L11.8445 17.5108C11.2765 17.5932 10.8137 17.9832 10.6361 18.5295C10.4589 19.0758 10.6039 19.6635 11.0148 20.064L14.6719 23.6287C14.8278 23.7809 14.8993 23.9999 14.8625 24.2139L13.9993 29.2479C13.9024 29.8135 14.1302 30.374 14.5946 30.7118C15.0586 31.05 15.6626 31.0939 16.1713 30.8259L20.6916 28.4491C20.8843 28.348 21.1142 28.348 21.3069 28.4491L25.8276 30.8259C26.0483 30.9421 26.2874 30.9994 26.5252 30.9994C26.8341 30.9994 27.1418 30.9028 27.4043 30.7118C27.8687 30.374 28.0965 29.8135 27.9995 29.2479L27.1359 24.2143C27.0992 23.9999 27.1706 23.7813 27.3266 23.6291L30.9837 20.064ZM26.3125 24.3556L27.1757 29.3892C27.2191 29.6425 27.1209 29.8846 26.9127 30.0359C26.7041 30.1868 26.4446 30.2052 26.2168 30.0865L21.696 27.7093C21.4783 27.5952 21.2383 27.5375 20.9992 27.5375C20.7601 27.5375 20.5206 27.5952 20.3024 27.7097L15.7825 30.0865C15.5539 30.2052 15.2943 30.1868 15.0862 30.0359C14.878 29.8846 14.7802 29.643 14.8232 29.3892L15.6864 24.3556C15.7696 23.8699 15.6087 23.3742 15.2559 23.0306L11.5983 19.4654C11.414 19.2857 11.3513 19.0324 11.4311 18.7878C11.5105 18.5429 11.7099 18.3748 11.9645 18.3376L17.0186 17.6032C17.5064 17.5326 17.9282 17.2266 18.1459 16.7843L20.4061 12.2043C20.5198 11.9735 20.7417 11.836 20.9988 11.836C21.2563 11.836 21.4778 11.9735 21.592 12.2043L23.8521 16.7843C24.0699 17.2266 24.4912 17.5326 24.979 17.6032L30.0335 18.3376C30.2881 18.3748 30.4875 18.5429 30.5669 18.7878C30.6463 19.0324 30.5841 19.2857 30.3997 19.4654L26.7426 23.0301C26.3898 23.3742 26.2289 23.8695 26.3125 24.3556Z" fill="#20223E"/>
</svg>
