<svg width="42" height="42" viewBox="0 0 42 42" fill="none" xmlns="http://www.w3.org/2000/svg">
<circle cx="21" cy="21" r="21" fill="#EBEBF4"/>
<path d="M30.2427 14.7164C30.2384 14.705 30.2326 14.695 30.2271 14.6843C30.2145 14.6594 30.1994 14.6368 30.181 14.6159C30.1729 14.6066 30.1654 14.5975 30.1563 14.5892C30.1335 14.5683 30.1076 14.5513 30.0792 14.5372C30.0719 14.5336 30.066 14.5284 30.0584 14.5253C30.0567 14.5246 30.0555 14.5232 30.0537 14.5226L21.0541 11.0227C20.9766 10.9924 20.89 10.9924 20.8125 11.0227L11.8129 14.5226C11.8112 14.5232 11.8099 14.5246 11.8082 14.5253C11.8007 14.5283 11.7948 14.5335 11.7876 14.5371C11.759 14.5512 11.7331 14.5682 11.7103 14.5892C11.7012 14.5975 11.6937 14.6065 11.6856 14.6158C11.6672 14.6368 11.6521 14.6594 11.6394 14.6843C11.634 14.695 11.6282 14.7049 11.6239 14.7163C11.61 14.7533 11.6003 14.7921 11.6003 14.8332V27.1661C11.6003 27.1678 11.6013 27.1693 11.6014 27.171C11.6017 27.1983 11.6103 27.2237 11.6173 27.2497C11.6215 27.2658 11.6217 27.2833 11.6282 27.2983C11.6359 27.3161 11.6499 27.3301 11.6606 27.3463C11.6734 27.3657 11.6836 27.387 11.7001 27.4032C11.7104 27.4134 11.7248 27.4189 11.7365 27.4278C11.7595 27.4452 11.7818 27.4632 11.8089 27.4743C11.8105 27.4749 11.8114 27.4762 11.813 27.4768L20.8126 30.9767C20.8514 30.9919 20.8924 30.9993 20.9334 30.9993C20.9744 30.9993 21.0154 30.9918 21.0542 30.9767L30.0539 27.4768C30.0554 27.4762 30.0563 27.4749 30.0578 27.4743C30.085 27.4632 30.1074 27.4451 30.1304 27.4277C30.1421 27.4189 30.1565 27.4133 30.1667 27.4032C30.1834 27.3868 30.1937 27.3654 30.2066 27.3458C30.2171 27.3298 30.2309 27.3159 30.2385 27.2984C30.2451 27.2831 30.2453 27.2655 30.2496 27.2492C30.2564 27.2233 30.265 27.1981 30.2654 27.171C30.2654 27.1693 30.2664 27.1678 30.2664 27.1661V14.8333C30.2663 14.7921 30.2567 14.7534 30.2427 14.7164ZM20.9333 11.691L29.0134 14.8333L25.4332 16.2256L17.3531 13.0833L20.9333 11.691ZM20.6 30.1788L12.2669 26.9381V15.3206L20.5999 18.5612V30.1788H20.6ZM20.9333 17.9755L12.8532 14.8333L16.4334 13.441L24.5135 16.5832L20.9333 17.9755ZM29.5996 26.9381L21.2666 30.1788V18.5612L29.5996 15.3206V26.9381Z" fill="#20223E"/>
</svg>
