<svg width="42" height="42" viewBox="0 0 42 42" fill="none" xmlns="http://www.w3.org/2000/svg">
<circle cx="21" cy="21" r="21" fill="#EBEBF4"/>
<path d="M21.6276 31H20.3724C19.3572 31 18.5312 30.1741 18.5312 29.1589V28.7342C18.0996 28.5963 17.6803 28.4223 17.2774 28.2138L16.9765 28.5147C16.2476 29.2445 15.0801 29.2231 14.3724 28.5145L13.4852 27.6273C12.7763 26.9192 12.7559 25.752 13.4855 25.0232L13.7862 24.7225C13.5777 24.3197 13.4037 23.9004 13.2657 23.4688H12.8411C11.826 23.4688 11 22.6428 11 21.6276V20.3724C11 19.3572 11.826 18.5312 12.8412 18.5312H13.2658C13.4037 18.0996 13.5777 17.6803 13.7862 17.2775L13.4853 16.9766C12.7561 16.2482 12.7763 15.0809 13.4855 14.3725L14.3727 13.4853C15.0821 12.775 16.2493 12.7572 16.9768 13.4855L17.2775 13.7862C17.6803 13.5777 18.0996 13.4037 18.5312 13.2657V12.8411C18.5312 11.8259 19.3572 11 20.3724 11H21.6276C22.6428 11 23.4688 11.8259 23.4688 12.8411V13.2658C23.9004 13.4037 24.3197 13.5777 24.7225 13.7862L25.0235 13.4853C25.7523 12.7555 26.9199 12.7769 27.6276 13.4855L28.5147 14.3727C29.2237 15.0808 29.2441 16.248 28.5145 16.9768L28.2138 17.2775C28.4223 17.6803 28.5963 18.0996 28.7342 18.5312H29.1588C30.174 18.5312 31 19.3572 31 20.3724V21.6276C31 22.6428 30.174 23.4688 29.1588 23.4688H28.7342C28.5963 23.9004 28.4223 24.3197 28.2138 24.7225L28.5147 25.0235C29.2439 25.7518 29.2237 26.9191 28.5145 27.6276L27.6273 28.5148C26.9179 29.2251 25.7507 29.2428 25.0232 28.5145L24.7225 28.2139C24.3197 28.4223 23.9004 28.5964 23.4688 28.7343V29.1589C23.4688 30.1741 22.6428 31 21.6276 31ZM17.4733 26.9832C18.033 27.3142 18.6353 27.5642 19.2636 27.7264C19.5223 27.7931 19.7031 28.0265 19.7031 28.2937V29.1589C19.7031 29.5279 20.0034 29.8281 20.3724 29.8281H21.6276C21.9966 29.8281 22.2969 29.5279 22.2969 29.1589V28.2937C22.2969 28.0265 22.4777 27.7931 22.7364 27.7264C23.3647 27.5642 23.9671 27.3142 24.5267 26.9832C24.757 26.847 25.0502 26.8841 25.2393 27.0732L25.8521 27.6861C26.1164 27.9506 26.5407 27.9445 26.7984 27.6864L27.6862 26.7986C27.9433 26.5418 27.9519 26.1175 27.6864 25.8523L27.0733 25.2393C26.8842 25.0501 26.8471 24.7569 26.9833 24.5267C27.3143 23.9671 27.5643 23.3647 27.7264 22.7364C27.7932 22.4777 28.0266 22.2969 28.2938 22.2969H29.1589C29.5279 22.2969 29.8282 21.9967 29.8282 21.6277V20.3724C29.8282 20.0034 29.5279 19.7032 29.1589 19.7032H28.2938C28.0265 19.7032 27.7932 19.5224 27.7264 19.2637C27.5643 18.6354 27.3142 18.033 26.9833 17.4734C26.8471 17.2432 26.8842 16.95 27.0733 16.7608L27.6862 16.148C27.9511 15.8834 27.9442 15.4591 27.6864 15.2017L26.7987 14.314C26.5414 14.0563 26.117 14.0488 25.8524 14.3138L25.2394 14.9268C25.0502 15.116 24.757 15.153 24.5268 15.0169C23.9671 14.6859 23.3648 14.4359 22.7365 14.2737C22.4777 14.207 22.297 13.9736 22.297 13.7064V12.8411C22.297 12.4721 21.9967 12.1719 21.6277 12.1719H20.3725C20.0034 12.1719 19.7032 12.4721 19.7032 12.8411V13.7063C19.7032 13.9735 19.5224 14.2069 19.2636 14.2736C18.6354 14.4358 18.033 14.6858 17.4734 15.0168C17.243 15.1529 16.9499 15.1159 16.7607 14.9268L16.1479 14.3139C15.8837 14.0494 15.4594 14.0555 15.2017 14.3136L14.3139 15.2014C14.0568 15.4582 14.0482 15.8825 14.3137 16.1477L14.9268 16.7607C15.1159 16.9499 15.1529 17.2431 15.0168 17.4733C14.6858 18.0329 14.4358 18.6353 14.2737 19.2636C14.2069 19.5223 13.9735 19.7031 13.7063 19.7031H12.8412C12.4721 19.7031 12.1719 20.0034 12.1719 20.3724V21.6276C12.1719 21.9966 12.4721 22.2969 12.8412 22.2969H13.7063C13.9735 22.2969 14.2068 22.4777 14.2736 22.7364C14.4358 23.3647 14.6858 23.967 15.0168 24.5266C15.1529 24.7569 15.1159 25.0501 14.9267 25.2392L14.3139 25.8521C14.0489 26.1167 14.0559 26.5409 14.3136 26.7984L15.2013 27.6861C15.4586 27.9437 15.883 27.9513 16.1476 27.6863L16.7607 27.0732C16.9 26.9339 17.19 26.8156 17.4733 26.9832Z" fill="#4F5163"/>
<path d="M21 25.3516C18.6005 25.3516 16.6484 23.3995 16.6484 21C16.6484 18.6005 18.6005 16.6484 21 16.6484C23.3995 16.6484 25.3516 18.6005 25.3516 21C25.3516 23.3995 23.3995 25.3516 21 25.3516ZM21 17.8203C19.2467 17.8203 17.8203 19.2467 17.8203 21C17.8203 22.7533 19.2467 24.1797 21 24.1797C22.7533 24.1797 24.1797 22.7533 24.1797 21C24.1797 19.2467 22.7533 17.8203 21 17.8203Z" fill="#4F5163"/>
</svg>
