<svg width="42" height="42" viewBox="0 0 42 42" fill="none" xmlns="http://www.w3.org/2000/svg">
<circle cx="21" cy="21" r="21" fill="#EBEBF4"/>
<path d="M24.6526 16.3474C24.3509 16.0457 23.8616 16.0456 23.5598 16.3474C23.2581 16.6491 23.258 17.1384 23.5598 17.4402L25.8467 19.7272H16.3789C15.9522 19.7272 15.6062 20.0732 15.6062 20.4999C15.6062 20.9267 15.9522 21.2727 16.3789 21.2727H25.8466L23.5598 23.5595C23.258 23.8613 23.258 24.3505 23.5598 24.6523C23.7107 24.8032 23.9084 24.8786 24.1062 24.8786C24.304 24.8786 24.5017 24.8032 24.6526 24.6523L28.2585 21.0464C28.5603 20.7446 28.5603 20.2554 28.2585 19.9536L24.6526 16.3474Z" fill="#4F5163"/>
<path d="M19.9848 29C20.4116 29 20.7576 28.654 20.7576 28.2273C20.7576 27.8005 20.4116 27.4545 19.9848 27.4545H14.0606V13.5455H19.9848C20.4116 13.5455 20.7576 13.1995 20.7576 12.7727C20.7576 12.346 20.4116 12 19.9848 12H13.2879C12.8611 12 12.5151 12.346 12.5151 12.7727V28.2273C12.5151 28.654 12.8611 29 13.2879 29H19.9848Z" fill="#4F5163"/>
</svg>
