<svg xmlns="http://www.w3.org/2000/svg" viewBox="0 0 780 500"><defs><style>.cls-1{fill:#bdbdbd;}.cls-2{fill:#252638;}</style></defs><title>AmEx_logo</title><g id="Слой_2" data-name="Слой 2"><g id="Слой_1-2" data-name="Слой 1"><rect class="cls-1" width="780" height="500" rx="31.63"/><path class="cls-2" d="M575.61,145.11l-15.09,35h30.26ZM401.46,166.82c2.84-1.42,4.52-4.51,4.52-8.35s-1.76-6.49-4.6-7.77c-2.6-1.42-6.58-1.59-10.4-1.59H364v19.52h26.63C394.88,168.64,398.45,168.58,401.46,166.82Zm-346-21.71-14.92,35H70.5Zm694.7,224.47H707.85V350.73H750c4.18,0,7.11-.53,8.87-2.18a7.54,7.54,0,0,0,2.59-5.73A7.06,7.06,0,0,0,758.8,337c-1.59-1.35-3.9-2-7.72-2-20.59-.67-46.28.61-46.28-27.21,0-12.75,8.45-26.17,31.46-26.17h43.68V264.18H739.36c-12.24,0-21.14,2.81-27.44,7.18v-7.18h-60c-9.6,0-20.87,2.28-26.19,7.18v-7.18H518.52v7.18c-8.53-5.9-22.93-7.18-29.57-7.18h-70.7v7.18c-6.75-6.26-21.76-7.18-30.9-7.18H308.22L290.12,283l-17-18.77H155V386.86h116l18.65-19.08,17.58,19.08,71.48.06V358.06h7c9.49.14,20.67-.22,30.54-4.31v33.1h59v-32H478c3.63,0,4,.14,4,3.62v28.35H661.13c11.37,0,23.26-2.79,29.84-7.86v7.86h56.82c11.82,0,23.36-1.59,32.15-5.66V358.34c-5.32,7.46-15.71,11.24-29.75,11.24Zm-363.58-29H359.25V370.1H316.63l-27-29.1-28.06,29.1H174.72V282.19h88.19l27,28.82,27.89-28.82h70.06c17.4,0,37,4.61,37,29s-19,29.46-38.18,29.46Zm131.56-4c3.1,4.29,3.54,8.29,3.63,16V370.1h-22v-11c0-5.28.53-13.12-3.55-17.2-3.2-3.15-8.08-3.9-16.08-3.9H456.72v32.1h-22V282.19h50.62c11.11,0,19.19.47,26.39,4.15,6.92,4,11.27,9.49,11.27,19.52a24.68,24.68,0,0,1-15.54,23.39,23.76,23.76,0,0,1,10.74,7.38Zm90.58-36.26H557.4v16h50.09v17.94H557.4v17.49l51.35.08V370.1H535.56V282.19h73.19Zm56.34,69.73H622.38V351.25h42.54c4.16,0,7.11-.53,9-2.18a7.68,7.68,0,0,0,2.59-5.73,7.45,7.45,0,0,0-2.68-5.82c-1.68-1.34-4-1.94-7.81-1.94-20.5-.68-46.18.6-46.18-27.22,0-12.75,8.36-26.17,31.35-26.17h44V300.9H654.88c-4,0-6.58.14-8.78,1.59-2.41,1.42-3.3,3.53-3.3,6.32a6.75,6.75,0,0,0,4.8,6.55,26.26,26.26,0,0,0,8.53,1l11.81.31c11.9.27,20.07,2.25,25,7.06,4.26,4.24,6.56,9.58,6.56,18.63,0,18.91-12.34,27.74-34.45,27.74ZM495,301.79c-2.65-1.51-6.56-1.59-10.46-1.59h-27v19.74h26.64c4.26,0,7.89-.14,10.82-1.81a9.38,9.38,0,0,0,4.54-8.44c0-3.76-1.7-6.48-4.54-7.9Zm245-1.59c-4,0-6.64.14-8.87,1.59s-3.21,3.53-3.21,6.32a6.67,6.67,0,0,0,4.8,6.55,26,26,0,0,0,8.45,1l11.88.3c12,.28,20,2.26,24.88,7.08a11.46,11.46,0,0,1,2,2.17v-25Zm-352.65,0H358.78v22.39h28.34c8.42,0,13.66-4,13.66-11.61S395.29,300.2,387.37,300.2Zm-190.81,0v16H244.7v17.94H196.56v17.49h53.91l25-25.79-24-25.62Zm140.77,61.48V291.19l-33.66,34.68,33.66,35.81ZM198.4,220.53v15.14H381.59l-.09-32h3.55c2.48.08,3.2.3,3.2,4.23v27.82H483v-7.47c7.64,3.93,19.53,7.47,35.17,7.47H558l8.53-19.53h18.91l8.35,19.53h76.81V217.13l11.63,18.54h61.55V113.09H682.9v14.48l-8.53-14.48H611.86v14.48L604,113.09H519.59c-14.13,0-26.55,1.89-36.59,7.16v-7.16H424.73v7.16c-6.38-5.43-15.09-7.16-24.76-7.16H187.1l-14.28,31.67-14.67-31.67H91.1v14.48l-7.36-14.48H26.56L0,171.38V218l39.27-87.89H71.85l37.29,83.21V130.11h35.79l28.69,59.62L200,130.11h36.51V218H214l-.08-68.84L182.14,218H162.88L131,149.1V218H86.41L78,198.39H32.33L23.82,218H0v17.68H37.47l8.45-19.52H64.83l8.42,19.52H147V220.75l6.58,15h38.26l6.58-15.21Zm288.67-80.18c7.08-7,18.19-10.25,33.3-10.25h21.22v18.83H520.81c-8,0-12.52,1.14-16.87,5.21-3.74,3.7-6.3,10.7-6.3,19.91,0,9.42,1.95,16.21,6,20.64,3.37,3.48,9.51,4.53,15.28,4.53h9.85l30.9-69.12h32.85l37.13,83.14V130.1h33.38l38.55,61.22V130.1h22.46V218H693l-41.57-66v66H606.78l-8.53-19.61H552.7L544.42,218H518.76c-10.66,0-24.15-2.26-31.8-9.73s-11.71-17.57-11.71-33.55c0-13,2.39-24.95,11.82-34.37ZM442,130.1h22.37V218H442Zm-100.87,0h50.43c11.2,0,19.46.29,26.55,4.21s11.1,9.66,11.1,19.46a24.77,24.77,0,0,1-15.45,23.43,25.41,25.41,0,0,1,10.85,7.4c3.1,4.37,3.63,8.28,3.63,16.13V218H406.09L406,206.91c0-5.29.53-12.9-3.46-17.12-3.2-3.09-8.09-3.76-16-3.76H363v32H341.1V130.1Zm-88.39,0H326v18.3H274.63v15.85h50.09v18H274.63v17.56H326V218H252.71Z"/></g></g></svg>