<svg xmlns="http://www.w3.org/2000/svg" viewBox="0 0 357.42 50.41"><defs><style>.cls-1{fill:#df1c1d;}</style></defs><title>art4</title><g id="Слой_2" data-name="Слой 2"><g id="Слой_1-2" data-name="Слой 1"><path class="cls-1" d="M.12,47.18,9,13.71Q12.54,0,32.29,0h19A2.75,2.75,0,0,1,53.4,1a3.35,3.35,0,0,1,.86,2.29V47.18a3,3,0,0,1-1,2.3,3.32,3.32,0,0,1-2.36.93H44.31a3.18,3.18,0,0,1-3.3-3.3V38.25H16l-2.35,8.86a4.15,4.15,0,0,1-1.58,2.37,4.25,4.25,0,0,1-2.6.93H2.55a2.31,2.31,0,0,1-2-.79A2.3,2.3,0,0,1,0,48.23,5.33,5.33,0,0,1,.12,47.18ZM18.62,28.3H41V10H31A9.35,9.35,0,0,0,21.71,17Z"/><path class="cls-1" d="M116.67,48.9c0,1-.6,1.51-1.8,1.51h-8.43a5.83,5.83,0,0,1-2.94-1,7.14,7.14,0,0,1-2.44-2.34l-6-9.35Q91.39,32,86.15,32H77.57V47.11a3.28,3.28,0,0,1-3.3,3.3H67.66a3.26,3.26,0,0,1-2.36-1,3.2,3.2,0,0,1-1-2.34V3.34a3.31,3.31,0,0,1,1-2.36,3.1,3.1,0,0,1,2.32-1h29q8.05,0,13.2,4.32A14.45,14.45,0,0,1,114.94,16q0,10.23-13.25,12.83a10.2,10.2,0,0,1,3.9,2.65A38.55,38.55,0,0,1,109.71,37l6.39,10.16A3.64,3.64,0,0,1,116.67,48.9ZM77.57,22h15a13.61,13.61,0,0,0,6.38-1.44,4.83,4.83,0,0,0,2.76-4.6,4.84,4.84,0,0,0-2.76-4.61A13.61,13.61,0,0,0,92.55,10h-15Z"/><path class="cls-1" d="M117.83,6.64V3.34a3.21,3.21,0,0,1,1-2.39A3.25,3.25,0,0,1,121.17,0h44.61a3.25,3.25,0,0,1,3.34,3.34v3.3a3.19,3.19,0,0,1-1,2.38,3.27,3.27,0,0,1-2.39.93H150.1V47.18a3.05,3.05,0,0,1-1,2.3,3.23,3.23,0,0,1-2.33.93h-6.65a3.27,3.27,0,0,1-2.34-.93,3.08,3.08,0,0,1-1-2.3V10H121.17A3.27,3.27,0,0,1,118.78,9,3.16,3.16,0,0,1,117.83,6.64Z"/><path class="cls-1" d="M170.7,3a2.42,2.42,0,0,1-.17-1,2.07,2.07,0,0,1,.61-1.27A2.3,2.3,0,0,1,173,0h7.7a4,4,0,0,1,2.53,1,5.22,5.22,0,0,1,1.65,2.39l9.28,27.84,8.58-27.84q1-3.34,4.18-3.34h6.47q3.17,0,4.18,3.34l8.58,27.84,9.28-27.84A5.16,5.16,0,0,1,237.08,1,3.91,3.91,0,0,1,239.61,0h7.7a2.26,2.26,0,0,1,1.81.72A2.07,2.07,0,0,1,249.73,2a2.85,2.85,0,0,1-.14,1L233.91,46.83a5,5,0,0,1-5.06,3.58h-5.1a4.77,4.77,0,0,1-5-3.58l-8.57-27.07-8.58,27.07a4.81,4.81,0,0,1-5,3.58h-5.13a4.94,4.94,0,0,1-5-3.58Z"/><path class="cls-1" d="M255.5,47V3.27a3.12,3.12,0,0,1,1-2.32A3.29,3.29,0,0,1,258.84,0h40.53a3.16,3.16,0,0,1,2.34,1,3.25,3.25,0,0,1,1,2.36v3.3a3.16,3.16,0,0,1-1,2.34,3.16,3.16,0,0,1-2.34,1H268.75V20.18h26.37a3.29,3.29,0,0,1,3.3,3.3v3.31a3.28,3.28,0,0,1-3.3,3.3H268.75V40.46H299.3a3.13,3.13,0,0,1,2.29.95,3.19,3.19,0,0,1,1,2.32v3.38a3.17,3.17,0,0,1-1,2.34,3.24,3.24,0,0,1-2.35,1H258.84A3.31,3.31,0,0,1,255.5,47Z"/><path class="cls-1" d="M306.79,50.41a1.72,1.72,0,0,1-2-1.58,2.94,2.94,0,0,1,.74-1.72L323.28,24.5,306.58,3.34a2.82,2.82,0,0,1-.74-1.72c0-1.08.65-1.62,1.94-1.62h7.55a7.7,7.7,0,0,1,6.16,3.34l9.63,12.23,9.63-12.23A7.78,7.78,0,0,1,346.9,0h7.56c1.29,0,1.94.54,1.94,1.62a2.94,2.94,0,0,1-.74,1.72L339,24.5l17.72,22.61a2.69,2.69,0,0,1,.74,1.48,1.73,1.73,0,0,1-2,1.82H348a7.65,7.65,0,0,1-6.12-3.3L331.12,33.43,320.4,47.11a7.65,7.65,0,0,1-6.12,3.3Z"/></g></g></svg>