<svg width="24" height="24" viewBox="0 0 24 24" fill="none" xmlns="http://www.w3.org/2000/svg">
<g clip-path="url(#clip0_375_7823)">
<path d="M11.6378 11.5609C13.2261 11.5609 14.6012 10.9913 15.7251 9.86737C16.8486 8.74365 17.4185 7.36871 17.4185 5.78027C17.4185 4.19238 16.8488 2.81726 15.7249 1.69318C14.601 0.569641 13.2259 0 11.6378 0C10.0494 0 8.67444 0.569641 7.55072 1.69336C6.427 2.81708 5.85718 4.1922 5.85718 5.78027C5.85718 7.36871 6.427 8.74384 7.55072 9.86755C8.6748 10.9911 10.0499 11.5609 11.6378 11.5609ZM8.54535 2.68781C9.40759 1.82556 10.4191 1.40643 11.6378 1.40643C12.8564 1.40643 13.868 1.82556 14.7305 2.68781C15.5927 3.55023 16.012 4.56189 16.012 5.78027C16.012 6.99902 15.5927 8.0105 14.7305 8.87292C13.868 9.73535 12.8564 10.1545 11.6378 10.1545C10.4194 10.1545 9.40796 9.73517 8.54535 8.87292C7.68292 8.01068 7.26361 6.99902 7.26361 5.78027C7.26361 4.56189 7.68292 3.55023 8.54535 2.68781Z" fill="#20223E"/>
<path d="M21.7524 18.4556C21.72 17.988 21.6544 17.4778 21.5579 16.9391C21.4605 16.3964 21.3351 15.8834 21.1849 15.4144C21.0297 14.9297 20.8189 14.4511 20.558 13.9924C20.2875 13.5164 19.9697 13.1018 19.613 12.7607C19.24 12.4038 18.7833 12.1169 18.2552 11.9076C17.729 11.6994 17.1458 11.5939 16.522 11.5939C16.277 11.5939 16.04 11.6945 15.5825 11.9924C15.3008 12.176 14.9714 12.3884 14.6038 12.6234C14.2894 12.8237 13.8635 13.0114 13.3374 13.1813C12.8242 13.3474 12.303 13.4316 11.7885 13.4316C11.2744 13.4316 10.7532 13.3474 10.2396 13.1813C9.71411 13.0115 9.28802 12.8239 8.97418 12.6235C8.60999 12.3908 8.2804 12.1784 7.99457 11.9922C7.53735 11.6943 7.30042 11.5938 7.05542 11.5938C6.4314 11.5938 5.84839 11.6994 5.32233 11.9078C4.79462 12.1167 4.33777 12.4036 3.96442 12.7609C3.60773 13.1022 3.28986 13.5165 3.01959 13.9924C2.75903 14.4511 2.5481 14.9296 2.39282 15.4146C2.24286 15.8835 2.11743 16.3964 2.02002 16.9391C1.92334 17.4771 1.85797 17.9874 1.82556 18.4562C1.7937 18.9145 1.77759 19.3915 1.77759 19.8734C1.77759 21.1262 2.17584 22.1404 2.96118 22.8884C3.73682 23.6265 4.76294 24.0008 6.01117 24.0008H17.5673C18.8152 24.0008 19.8413 23.6265 20.6171 22.8884C21.4026 22.141 21.8009 21.1264 21.8009 19.8732C21.8007 19.3896 21.7844 18.9127 21.7524 18.4556ZM19.6474 21.8694C19.1349 22.3572 18.4545 22.5944 17.5671 22.5944H6.01117C5.12366 22.5944 4.44324 22.3572 3.93091 21.8696C3.42828 21.3912 3.18402 20.738 3.18402 19.8734C3.18402 19.4237 3.19885 18.9797 3.22852 18.5534C3.25745 18.1352 3.31659 17.6758 3.4043 17.1876C3.49091 16.7055 3.60114 16.2531 3.73224 15.8434C3.85803 15.4507 4.0296 15.0618 4.24237 14.6871C4.44543 14.3301 4.67908 14.0237 4.93689 13.7769C5.17804 13.546 5.48199 13.3571 5.84015 13.2153C6.17139 13.0842 6.54364 13.0125 6.94775 13.0016C6.99701 13.0278 7.08472 13.0778 7.22681 13.1705C7.51593 13.3589 7.84918 13.5739 8.21759 13.8091C8.63287 14.0739 9.16791 14.313 9.80713 14.5194C10.4606 14.7307 11.1271 14.838 11.7887 14.838C12.4503 14.838 13.1169 14.7307 13.7701 14.5196C14.4099 14.3129 14.9447 14.0739 15.3605 13.8088C15.7375 13.5678 16.0615 13.3591 16.3506 13.1705C16.4927 13.078 16.5804 13.0278 16.6296 13.0016C17.0339 13.0125 17.4062 13.0842 17.7376 13.2153C18.0956 13.3571 18.3995 13.5462 18.6407 13.7769C18.8985 14.0236 19.1321 14.3299 19.3352 14.6873C19.5482 15.0618 19.7199 15.4509 19.8455 15.8433C19.9768 16.2534 20.0872 16.7057 20.1736 17.1874C20.2612 17.6765 20.3205 18.1361 20.3494 18.5536V18.554C20.3793 18.9786 20.3943 19.4224 20.3945 19.8734C20.3943 20.7382 20.15 21.3912 19.6474 21.8694Z" fill="#20223E"/>
</g>
<defs>
<clipPath id="clip0_375_7823">
<rect width="24" height="24" fill="white"/>
</clipPath>
</defs>
</svg>
