<svg xmlns="http://www.w3.org/2000/svg" viewBox="0 0 63.99 64"><defs><style>.cls-1{fill:#bebebe;}.cls-2{fill:#252738;}</style></defs><title>bitcoin_logo</title><g id="Слой_2" data-name="Слой 2"><g id="Слой_1-2" data-name="Слой 1"><path class="cls-1" d="M63,39.74A32,32,0,1,1,39.73,1,32,32,0,0,1,63,39.74Z"/><path class="cls-2" d="M46.11,27.44c.63-4.26-2.61-6.55-7-8.07l1.44-5.77L37,12.72l-1.4,5.62c-.92-.23-1.87-.45-2.81-.66L34.19,12l-3.51-.88-1.44,5.77L27,16.39v0l-4.85-1.21-.93,3.75s2.6.6,2.55.64a1.87,1.87,0,0,1,1.64,2l-1.64,6.57a1.88,1.88,0,0,1,.36.12l-.37-.1-2.29,9.21a1.28,1.28,0,0,1-1.61.83c0,.05-2.56-.63-2.56-.63l-1.74,4,4.57,1.13,2.5.65-1.45,5.83,3.51.88,1.44-5.77q1.42.39,2.79.72L27.5,50.8l3.51.87,1.45-5.82c6,1.13,10.49.68,12.39-4.74,1.53-4.36-.08-6.87-3.23-8.51,2.3-.53,4-2,4.49-5.16Zm-8,11.25c-1.08,4.36-8.42,2-10.8,1.41l1.93-7.73c2.38.6,10,1.77,8.87,6.32Zm1.09-11.31c-1,4-7.1,1.95-9.08,1.46l1.75-7C33.82,22.32,40.2,23.24,39.17,27.38Z"/></g></g></svg>