<svg width="20" height="21" viewBox="0 0 20 21" fill="none" xmlns="http://www.w3.org/2000/svg">
<g clip-path="url(#clip0_309_2416)">
<path d="M19.6998 12.6204C18.3642 17.9776 12.9382 21.2379 7.58043 19.902C2.2248 18.5664 -1.03551 13.1401 0.30074 7.78323C1.63574 2.42542 7.06168 -0.835204 12.4179 0.500421C17.7754 1.83605 21.0354 7.26292 19.6998 12.6204Z" fill="#F7931A"/>
<path d="M14.4092 8.77648C14.6082 7.44586 13.5951 6.73055 12.2098 6.25336L12.6592 4.45086L11.562 4.17742L11.1245 5.93242C10.8361 5.86055 10.5398 5.79273 10.2454 5.72555L10.6861 3.95898L9.5895 3.68555L9.13981 5.48742C8.90106 5.43305 8.66668 5.3793 8.43918 5.32273L8.44043 5.31711L6.92731 4.9393L6.63543 6.11117C6.63543 6.11117 7.4495 6.29773 7.43231 6.3093C7.87668 6.42023 7.957 6.7143 7.94356 6.94742L7.43168 9.00086C7.46231 9.00867 7.502 9.01992 7.54575 9.03742C7.50918 9.02836 7.47012 9.01836 7.42981 9.00867L6.71231 11.8852C6.65793 12.0202 6.52012 12.2227 6.2095 12.1459C6.22043 12.1618 5.412 11.9468 5.412 11.9468L4.86731 13.2027L6.29512 13.5587C6.56075 13.6252 6.82106 13.6949 7.07731 13.7605L6.62325 15.5837L7.71918 15.8571L8.16887 14.0534C8.46825 14.1346 8.75887 14.2096 9.04325 14.2802L8.59512 16.0755L9.69231 16.349L10.1464 14.5293C12.0173 14.8834 13.4242 14.7405 14.0164 13.0484C14.4936 11.6859 13.9926 10.8999 13.0082 10.3874C13.7251 10.2221 14.2651 9.75055 14.4092 8.77648V8.77648ZM11.9023 12.2918C11.5632 13.6543 9.26918 12.9177 8.52543 12.733L9.12793 10.3177C9.87168 10.5034 12.2567 10.8709 11.9023 12.2918ZM12.2417 8.7568C11.9323 9.99617 10.0229 9.36648 9.40356 9.21211L9.94981 7.02148C10.5692 7.17586 12.5639 7.46398 12.2417 8.7568V8.7568Z" fill="white"/>
</g>
<defs>
<clipPath id="clip0_309_2416">
<rect width="20" height="20" fill="white" transform="translate(0 0.201172)"/>
</clipPath>
</defs>
</svg>
