<svg width="20" height="21" viewBox="0 0 20 21" fill="none" xmlns="http://www.w3.org/2000/svg">
<g clip-path="url(#clip0_309_2434)">
<path d="M19.6998 12.6204C18.3642 17.9776 12.9382 21.2379 7.58043 19.902C2.2248 18.5664 -1.03551 13.1401 0.30074 7.78323C1.63574 2.42542 7.06168 -0.835204 12.4179 0.500421C17.7754 1.83605 21.0354 7.26292 19.6998 12.6204Z" fill="#50AF95"/>
<path fill-rule="evenodd" clip-rule="evenodd" d="M11.2208 11.1142C11.1526 11.1193 10.8003 11.1403 10.0145 11.1403C9.38946 11.1403 8.94569 11.1216 8.79 11.1142C6.37454 11.0085 4.57162 10.5901 4.57162 10.0891C4.57162 9.58805 6.37454 9.17017 8.79 9.06274V10.6975C8.94796 10.7088 9.40026 10.7354 10.0253 10.7354C10.7753 10.7354 11.1509 10.7043 11.2185 10.6981V9.06387C13.6289 9.17074 15.4278 9.58918 15.4278 10.0891C15.4278 10.5889 13.6294 11.0074 11.2185 11.1137L11.2208 11.1142ZM11.2208 8.89479V7.43193H14.5846V5.20117H5.4262V7.43193H8.78943V8.89423C6.05578 9.01919 4 9.55808 4 10.2038C4 10.8496 6.05578 11.3879 8.78943 11.5135V16.2012H11.2202V11.5118C13.9476 11.3868 16 10.8485 16 10.2033C16 9.55808 13.9493 9.01976 11.2202 8.89423L11.2208 8.89479Z" fill="white"/>
</g>
<defs>
<clipPath id="clip0_309_2434">
<rect width="20" height="20" fill="white" transform="translate(0 0.201172)"/>
</clipPath>
</defs>
</svg>
