<svg width="24" height="24" viewBox="0 0 24 24" fill="none" xmlns="http://www.w3.org/2000/svg">
<path d="M7.73255 14.0627H7.73364C7.73456 14.0627 7.73548 14.0625 7.73639 14.0625H20.4844C20.7982 14.0625 21.0742 13.8543 21.1604 13.5526L23.9729 3.7088C24.0335 3.49658 23.991 3.26843 23.8583 3.09229C23.7253 2.91614 23.5175 2.8125 23.2969 2.8125H6.11096L5.60834 0.550598C5.53674 0.228882 5.25147 0 4.92188 0H0.703125C0.314758 0 0 0.314758 0 0.703125C0 1.09149 0.314758 1.40625 0.703125 1.40625H4.35791C4.4469 1.80707 6.76319 12.2305 6.89649 12.8302C6.14923 13.155 5.625 13.9001 5.625 14.7656C5.625 15.9287 6.57129 16.875 7.73438 16.875H20.4844C20.8727 16.875 21.1875 16.5602 21.1875 16.1719C21.1875 15.7835 20.8727 15.4688 20.4844 15.4688H7.73438C7.34674 15.4688 7.03125 15.1533 7.03125 14.7656C7.03125 14.3785 7.34564 14.0636 7.73255 14.0627ZM22.3647 4.21875L19.9539 12.6563H8.29834L6.42334 4.21875H22.3647Z" fill="#282828"/>
<path d="M7.03125 18.9844C7.03125 20.1475 7.97754 21.0938 9.14062 21.0938C10.3037 21.0938 11.25 20.1475 11.25 18.9844C11.25 17.8213 10.3037 16.875 9.14062 16.875C7.97754 16.875 7.03125 17.8213 7.03125 18.9844ZM9.14062 18.2812C9.52826 18.2812 9.84375 18.5967 9.84375 18.9844C9.84375 19.372 9.52826 19.6875 9.14062 19.6875C8.75299 19.6875 8.4375 19.372 8.4375 18.9844C8.4375 18.5967 8.75299 18.2812 9.14062 18.2812Z" fill="#282828"/>
<path d="M16.9688 18.9844C16.9688 20.1475 17.915 21.0938 19.0781 21.0938C20.2412 21.0938 21.1875 20.1475 21.1875 18.9844C21.1875 17.8213 20.2412 16.875 19.0781 16.875C17.915 16.875 16.9688 17.8213 16.9688 18.9844ZM19.0781 18.2812C19.4658 18.2812 19.7812 18.5967 19.7812 18.9844C19.7812 19.372 19.4658 19.6875 19.0781 19.6875C18.6905 19.6875 18.375 19.372 18.375 18.9844C18.375 18.5967 18.6905 18.2812 19.0781 18.2812Z" fill="#282828"/>
</svg>
