<svg width="52" height="50" viewBox="0 0 52 50" fill="none" xmlns="http://www.w3.org/2000/svg">
<g opacity="0.5">
<path d="M41.6664 23.6419C47.2923 23.6419 51.0834 27.5549 51.0834 33.3528C51.0834 38.5701 46.7261 42.9167 40.8243 42.9167C34.36 42.9167 29.5834 37.6993 29.5834 29.73C29.5834 11.6163 42.7916 4.37075 51.0834 3.5V11.4693C45.4612 12.4834 39.1402 18.1343 38.8571 24.3693C39.1402 24.226 40.2618 23.6419 41.6664 23.6419ZM13.0033 23.6419C18.622 23.6419 22.4167 27.5549 22.4167 33.3528C22.4167 38.5701 18.0594 42.9167 12.1577 42.9167C5.69333 42.9167 0.916748 37.6993 0.916748 29.73C0.916748 11.6163 14.1249 4.37075 22.4167 3.5V11.4693C16.7945 12.4834 10.4735 18.1343 10.1904 24.3693C10.4735 24.226 11.5951 23.6419 13.0033 23.6419Z" fill="#20223E"/>
</g>
</svg>
