<svg width="18" height="18" viewBox="0 0 18 18" fill="none" xmlns="http://www.w3.org/2000/svg">
<path d="M17.2196 16.631L9.54708 9.00024L17.1794 1.32578C17.33 1.17441 17.3294 0.929655 17.1781 0.779063C17.0267 0.62847 16.7819 0.62905 16.6314 0.780416L9.00056 8.45372L1.32687 0.821385C1.17551 0.670793 0.930754 0.671373 0.780162 0.822738C0.629569 0.974103 0.630149 1.21886 0.781514 1.36945L8.45405 9.00024L0.822484 16.6739C0.671891 16.8253 0.672471 17.0701 0.823837 17.2206C0.975202 17.3712 1.21996 17.3707 1.37055 17.2193L9.00056 9.54676L16.6727 17.1791C16.8241 17.3297 17.0688 17.3291 17.2194 17.1777C17.37 17.0264 17.3694 16.7816 17.2181 16.631H17.2196Z" fill="black"/>
</svg>
