<svg width="24" height="24" viewBox="0 0 24 24" fill="none" xmlns="http://www.w3.org/2000/svg">
<path d="M23.4144 11.575L12.3941 11.605L12.3637 0.582238C12.3632 0.364791 12.1865 0.188955 11.9691 0.189511C11.7516 0.190068 11.5758 0.366739 11.5763 0.584186L11.607 11.605L0.584705 11.6348C0.367258 11.6354 0.191421 11.8121 0.191978 12.0295C0.192534 12.2469 0.369206 12.4228 0.586653 12.4222L11.607 12.3922L11.6373 23.4139C11.6378 23.6313 11.8145 23.8071 12.032 23.8066C12.2494 23.806 12.4252 23.6294 12.4247 23.4119L12.3941 12.3922L23.4152 12.3635C23.6327 12.3629 23.8085 12.1863 23.8079 11.9688C23.8074 11.7514 23.6307 11.5755 23.4133 11.5761L23.4144 11.575Z" fill="#4F5163"/>
</svg>
