<svg width="50" height="50" viewBox="0 0 50 50" fill="none" xmlns="http://www.w3.org/2000/svg">
<circle cx="25" cy="25" r="25" fill="#EFEFF7"/>
<path d="M22.6959 26.2498C22.6239 26.2498 21.0399 26.2498 20.3199 26.2498C19.9359 26.2498 19.8159 26.1058 19.8159 25.7458C19.8159 24.7858 19.8159 23.8018 19.8159 22.8418C19.8159 22.4578 19.9599 22.3378 20.3199 22.3378H22.6959C22.6959 22.2658 22.6959 20.8738 22.6959 20.2258C22.6959 19.2658 22.8639 18.3538 23.3439 17.5138C23.8479 16.6498 24.5679 16.0738 25.4799 15.7378C26.0799 15.5218 26.6799 15.4258 27.3279 15.4258H29.6799C30.0159 15.4258 30.1599 15.5698 30.1599 15.9058V18.6418C30.1599 18.9778 30.0159 19.1218 29.6799 19.1218C29.0319 19.1218 28.3839 19.1218 27.7359 19.1458C27.0879 19.1458 26.7519 19.4578 26.7519 20.1298C26.7279 20.8498 26.7519 21.5458 26.7519 22.2898H29.5359C29.9199 22.2898 30.0639 22.4338 30.0639 22.8178V25.7218C30.0639 26.1058 29.9439 26.2258 29.5359 26.2258C28.6719 26.2258 26.8239 26.2258 26.7519 26.2258V34.0498C26.7519 34.4578 26.6319 34.6018 26.1999 34.6018C25.1919 34.6018 24.2079 34.6018 23.1999 34.6018C22.8399 34.6018 22.6959 34.4578 22.6959 34.0978C22.6959 31.5778 22.6959 26.3218 22.6959 26.2498Z" fill="#A9A9C1"/>
</svg>
