<svg width="12" height="12" viewBox="0 0 12 12" fill="none" xmlns="http://www.w3.org/2000/svg">
<path d="M0.0241953 11.5402C-0.0109609 11.6621 0.0241953 11.7957 0.113185 11.8848C0.178828 11.9503 0.270289 11.9879 0.361659 11.9879C0.394435 11.9879 0.427302 11.9832 0.457789 11.9738L3.73428 11.0386L0.959315 8.26367L0.0241953 11.5402Z" fill="#DF1A1D"/>
<path d="M0.362116 12.0002C0.265985 12.0002 0.174616 11.9627 0.106684 11.8947C0.0129337 11.801 -0.0222225 11.665 0.0152225 11.5385L0.957392 8.24316L3.76055 11.0463L0.460535 11.9861C0.427759 11.9955 0.394892 12.0002 0.362116 12.0002ZM0.966822 8.28537L0.0363712 11.5432C0.00350378 11.6628 0.0363712 11.7893 0.123072 11.876C0.186335 11.9392 0.273035 11.9744 0.362116 11.9744C0.392603 11.9744 0.425379 11.9697 0.455866 11.9604L3.71368 11.0299L0.966822 8.28537Z" fill="#DF1A1D"/>
<path d="M11.6797 1.80936L10.1914 0.321075C9.9899 0.121857 9.72742 0.0117188 9.44379 0.0117188C9.16254 0.0117188 8.89767 0.121857 8.69846 0.318787L7.95312 1.06403L10.9321 4.04297L11.6774 3.29764C11.8766 3.09842 11.9844 2.83356 11.9844 2.55231C11.9868 2.27106 11.8766 2.00858 11.6797 1.80936Z" fill="#DF1A1D"/>
<path d="M10.9348 4.05936L7.93945 1.06403L8.69174 0.311737C8.89334 0.110138 9.16049 0 9.44412 0C9.73004 0 9.99728 0.110138 10.1965 0.311737L11.6848 1.80002C11.8863 2.00153 11.9964 2.26877 11.9964 2.55231C11.9964 2.83832 11.8863 3.10547 11.6848 3.30469L10.9348 4.05936ZM7.97223 1.06403L10.9348 4.02658L11.6707 3.29059C11.8675 3.09375 11.9754 2.83356 11.9754 2.55469C11.9754 2.27582 11.8675 2.01562 11.6707 1.81879L10.1824 0.328125C9.98557 0.131287 9.72299 0.0234375 9.44412 0.0234375C9.16525 0.0234375 8.90506 0.131287 8.70822 0.328125L7.97223 1.06403Z" fill="#DF1A1D"/>
<path d="M1.35498 7.66428L7.45862 1.56055L10.4384 4.54031L4.33475 10.644L1.35498 7.66428Z" fill="#DF1A1D"/>
<path d="M4.33453 10.6621L1.33691 7.66449L7.45877 1.54492L10.4541 4.54025L4.33453 10.6621ZM1.37207 7.66449L4.33453 10.627L10.4212 4.54025L7.45877 1.57779L1.37207 7.66449Z" fill="#DF1A1D"/>
</svg>
