<svg width="50" height="50" viewBox="0 0 50 50" fill="none" xmlns="http://www.w3.org/2000/svg">
<circle cx="25" cy="25" r="25" fill="#EFEFF7"/>
<path d="M34.576 19.0472C33.856 19.3592 33.112 19.5752 32.32 19.6712C33.136 19.1912 33.76 18.4232 34.048 17.4872C33.28 17.9432 32.44 18.2552 31.552 18.4472C30.832 17.6792 29.8 17.1992 28.672 17.1992C26.488 17.1992 24.736 18.9752 24.736 21.1352C24.736 21.4472 24.76 21.7352 24.832 22.0232C21.568 21.8792 18.688 20.2952 16.744 17.9192C15.352 20.4152 16.912 22.4792 17.944 23.1752C17.32 23.1752 16.696 22.9832 16.168 22.6952C16.168 24.6392 17.536 26.2472 19.312 26.6072C18.928 26.7272 18.064 26.7992 17.536 26.6792C18.04 28.2392 19.504 29.3912 21.208 29.4152C19.864 30.4712 17.896 31.3112 15.376 31.0472C17.128 32.1752 19.192 32.8232 21.424 32.8232C28.672 32.8232 32.608 26.8232 32.608 21.6392C32.608 21.4712 32.608 21.3032 32.584 21.1352C33.4 20.5352 34.072 19.8392 34.576 19.0472Z" fill="#A9A9C1"/>
</svg>
