<svg width="20" height="21" viewBox="0 0 20 21" fill="none" xmlns="http://www.w3.org/2000/svg">
<g clip-path="url(#clip0_1411_1804)">
<path d="M19.9927 6.83937C19.8507 3.82924 17.5172 1.45391 14.7288 1.43164C14.715 1.43164 14.7019 1.43164 14.6881 1.43164C12.1115 1.43164 10.6752 3.32008 10 4.59491C9.32481 3.32012 7.8886 1.43164 5.31192 1.43164C5.29817 1.43164 5.28446 1.43164 5.2713 1.43164C2.4829 1.45395 0.149264 3.82924 0.0073501 6.83937C-0.167181 10.5306 2.78215 13.0076 7.18758 16.7559C7.95032 17.405 8.76173 18.0952 9.61434 18.8404L10 19.1775L10.3857 18.8404C11.2382 18.0953 12.0497 17.4051 12.8124 16.7559C17.2179 13.0076 20.1672 10.5306 19.9927 6.83937Z" fill="#4F5163"/>
</g>
<defs>
<clipPath id="clip0_1411_1804">
<rect width="20" height="19.9716" fill="white" transform="translate(0 0.318359)"/>
</clipPath>
</defs>
</svg>
