<svg width="20" height="21" viewBox="0 0 20 21" fill="none" xmlns="http://www.w3.org/2000/svg">
<g clip-path="url(#clip0_371_3172)">
<path d="M16.0326 4.63508H13.2153V3.0749C13.2153 3.01282 13.1906 2.95328 13.1467 2.90938C13.1027 2.86548 13.0431 2.84082 12.9809 2.84082H7.01903C6.95687 2.84082 6.89726 2.86548 6.8533 2.90938C6.80935 2.95328 6.78466 3.01282 6.78466 3.0749V4.63508H3.9675C3.65815 4.63516 3.36114 4.75626 3.14012 4.97242C2.91909 5.18858 2.79164 5.4826 2.78506 5.79149C2.77848 6.10037 2.8933 6.39954 3.10493 6.62489C3.31655 6.85024 3.60813 6.98384 3.9172 6.99706L4.57796 17.6023C4.58168 17.6617 4.60795 17.7175 4.65141 17.7583C4.69486 17.799 4.75224 17.8217 4.81186 17.8217H15.1882C15.2479 17.8217 15.3052 17.799 15.3487 17.7583C15.3921 17.7175 15.4184 17.6617 15.4221 17.6023L16.0829 6.99715C16.392 6.98393 16.6835 6.85033 16.8952 6.62497C17.1068 6.39962 17.2216 6.10045 17.215 5.79156C17.2085 5.48267 17.081 5.18865 16.86 4.97249C16.6389 4.75634 16.3419 4.63524 16.0326 4.63517V4.63508ZM7.25352 3.30897H12.7467V4.63508H7.25352V3.30897ZM14.968 17.3536H5.03212L4.38691 6.99835H15.6133L14.968 17.3536ZM16.0326 6.5302H3.9675C3.77882 6.52899 3.59829 6.45329 3.4653 6.31961C3.33231 6.18594 3.25767 6.00515 3.25767 5.81671C3.25767 5.62827 3.33231 5.44749 3.4653 5.31381C3.59829 5.18014 3.77882 5.10444 3.9675 5.10323H16.0326C16.1268 5.10263 16.2202 5.12064 16.3074 5.15623C16.3946 5.19181 16.4739 5.24427 16.5407 5.31058C16.6075 5.3769 16.6605 5.45575 16.6967 5.54262C16.7329 5.62948 16.7515 5.72263 16.7515 5.81671C16.7515 5.9108 16.7329 6.00395 16.6967 6.09081C16.6605 6.17768 16.6075 6.25653 16.5407 6.32284C16.4739 6.38916 16.3946 6.44162 16.3074 6.4772C16.2202 6.51279 16.1268 6.5308 16.0326 6.5302ZM6.88749 15.2238V8.28709C6.88749 8.22501 6.91218 8.16547 6.95614 8.12157C7.00009 8.07767 7.0597 8.05301 7.12186 8.05301C7.18402 8.05301 7.24364 8.07767 7.28759 8.12157C7.33155 8.16547 7.35624 8.22501 7.35624 8.28709V15.2238C7.35624 15.2858 7.33155 15.3454 7.28759 15.3893C7.24364 15.4332 7.18402 15.4578 7.12186 15.4578C7.0597 15.4578 7.00009 15.4332 6.95614 15.3893C6.91218 15.3454 6.88749 15.2858 6.88749 15.2238ZM9.76523 15.2238V8.28709C9.76523 8.25635 9.7713 8.22591 9.78307 8.19751C9.79485 8.16911 9.81212 8.14331 9.83388 8.12157C9.85564 8.09984 9.88148 8.08259 9.90992 8.07083C9.93835 8.05907 9.96883 8.05301 9.99961 8.05301C10.0304 8.05301 10.0609 8.05907 10.0893 8.07083C10.1177 8.08259 10.1436 8.09984 10.1653 8.12157C10.1871 8.14331 10.2044 8.16911 10.2161 8.19751C10.2279 8.22591 10.234 8.25635 10.234 8.28709V15.2238C10.234 15.2858 10.2093 15.3454 10.1653 15.3893C10.1214 15.4332 10.0618 15.4578 9.99961 15.4578C9.93745 15.4578 9.87783 15.4332 9.83388 15.3893C9.78993 15.3454 9.76523 15.2858 9.76523 15.2238ZM12.6434 15.2238V8.28709C12.6434 8.22501 12.6681 8.16547 12.7121 8.12157C12.756 8.07767 12.8157 8.05301 12.8778 8.05301C12.94 8.05301 12.9996 8.07767 13.0435 8.12157C13.0875 8.16547 13.1122 8.22501 13.1122 8.28709V15.2238C13.1122 15.2858 13.0875 15.3454 13.0435 15.3893C12.9996 15.4332 12.94 15.4578 12.8778 15.4578C12.8157 15.4578 12.756 15.4332 12.7121 15.3893C12.6681 15.3454 12.6434 15.2858 12.6434 15.2238Z" fill="#A9A9C1"/>
</g>
<defs>
<clipPath id="clip0_371_3172">
<rect width="15" height="14.9809" fill="white" transform="translate(2.5 2.84082)"/>
</clipPath>
</defs>
</svg>
