<svg width="24" height="24" viewBox="0 0 24 24" fill="none" xmlns="http://www.w3.org/2000/svg">
<g clip-path="url(#clip0_287_2421)">
<path d="M23.4144 11.576L12.3941 11.606L12.3637 0.583214C12.3632 0.365767 12.1865 0.189931 11.9691 0.190488C11.7516 0.191044 11.5758 0.367715 11.5763 0.585162L11.607 11.606L0.584705 11.6358C0.367258 11.6364 0.191421 11.813 0.191978 12.0305C0.192534 12.2479 0.369206 12.4238 0.586653 12.4232L11.607 12.3931L11.6373 23.4148C11.6378 23.6323 11.8145 23.8081 12.032 23.8076C12.2494 23.807 12.4252 23.6303 12.4247 23.4129L12.3941 12.3931L23.4152 12.3645C23.6327 12.3639 23.8085 12.1872 23.8079 11.9698C23.8074 11.7524 23.6307 11.5765 23.4133 11.5771L23.4144 11.576Z" fill="#4F5163"/>
</g>
<defs>
<clipPath id="clip0_287_2421">
<rect width="24" height="24" fill="white"/>
</clipPath>
</defs>
</svg>
