<svg width="44" height="21" viewBox="0 0 44 21" fill="none" xmlns="http://www.w3.org/2000/svg">
<g clip-path="url(#clip0_309_2453)">
<path d="M43.6998 12.6204C42.3642 17.9776 36.9382 21.2379 31.5804 19.902C26.2248 18.5664 22.9645 13.1401 24.3007 7.78323C25.6357 2.42542 31.0617 -0.835205 36.4179 0.500421C41.7754 1.83605 45.0354 7.26292 43.6998 12.6204Z" fill="#50AF95"/>
<path fill-rule="evenodd" clip-rule="evenodd" d="M35.2208 11.1142C35.1526 11.1193 34.8003 11.1403 34.0145 11.1403C33.3895 11.1403 32.9457 11.1216 32.79 11.1142C30.3745 11.0085 28.5716 10.5901 28.5716 10.0891C28.5716 9.58805 30.3745 9.17017 32.79 9.06274V10.6975C32.948 10.7088 33.4003 10.7354 34.0253 10.7354C34.7753 10.7354 35.1509 10.7043 35.2185 10.6981V9.06387C37.6289 9.17074 39.4278 9.58918 39.4278 10.0891C39.4278 10.5889 37.6294 11.0074 35.2185 11.1137L35.2208 11.1142ZM35.2208 8.89479V7.43193H38.5846V5.20117H29.4262V7.43193H32.7894V8.89423C30.0558 9.01919 28 9.55808 28 10.2038C28 10.8496 30.0558 11.3879 32.7894 11.5135V16.2012H35.2202V11.5118C37.9476 11.3868 40 10.8485 40 10.2033C40 9.55808 37.9493 9.01976 35.2202 8.89423L35.2208 8.89479Z" fill="white"/>
</g>
<g clip-path="url(#clip1_309_2453)">
<path d="M31.6998 12.6204C30.3642 17.9776 24.9382 21.2379 19.5804 19.902C14.2248 18.5664 10.9645 13.1401 12.3007 7.78323C13.6357 2.42542 19.0617 -0.835205 24.4179 0.500421C29.7754 1.83605 33.0354 7.26292 31.6998 12.6204Z" fill="#5172E4"/>
<g clip-path="url(#clip2_309_2453)">
<path d="M21.9988 3.20117L21.9114 3.52012V12.7752L21.9988 12.8688L25.9976 10.3294L21.9988 3.20117Z" fill="#B6C4F5"/>
<path d="M21.9988 3.20117L18 10.3294L21.9988 12.8689V8.37674V3.20117Z" fill="white"/>
<path d="M21.9988 13.6827L21.9496 13.7471V17.044L21.9988 17.1984L26 11.1445L21.9988 13.6827Z" fill="#B6C4F5"/>
<path d="M21.9988 17.1984V13.6827L18 11.1445L21.9988 17.1984Z" fill="white"/>
<path d="M21.9988 12.869L25.9975 10.3296L21.9988 8.37695V12.869Z" fill="#819AE8"/>
<path d="M18 10.3296L21.9988 12.869V8.37695L18 10.3296Z" fill="#8CA3ED"/>
</g>
</g>
<g clip-path="url(#clip3_309_2453)">
<path d="M19.6998 12.6204C18.3642 17.9776 12.9382 21.2379 7.58043 19.902C2.2248 18.5664 -1.03551 13.1401 0.30074 7.78323C1.63574 2.42542 7.06168 -0.835205 12.4179 0.500421C17.7754 1.83605 21.0354 7.26292 19.6998 12.6204Z" fill="#F7931A"/>
<path d="M14.4092 8.77648C14.6082 7.44586 13.5951 6.73055 12.2098 6.25336L12.6592 4.45086L11.562 4.17742L11.1245 5.93242C10.8361 5.86055 10.5398 5.79273 10.2454 5.72555L10.6861 3.95898L9.5895 3.68555L9.13981 5.48742C8.90106 5.43305 8.66668 5.3793 8.43918 5.32273L8.44043 5.31711L6.92731 4.9393L6.63543 6.11117C6.63543 6.11117 7.4495 6.29773 7.43231 6.3093C7.87668 6.42023 7.957 6.7143 7.94356 6.94742L7.43168 9.00086C7.46231 9.00867 7.502 9.01992 7.54575 9.03742C7.50918 9.02836 7.47012 9.01836 7.42981 9.00867L6.71231 11.8852C6.65793 12.0202 6.52012 12.2227 6.2095 12.1459C6.22043 12.1618 5.412 11.9468 5.412 11.9468L4.86731 13.2027L6.29512 13.5587C6.56075 13.6252 6.82106 13.6949 7.07731 13.7605L6.62325 15.5837L7.71918 15.8571L8.16887 14.0534C8.46825 14.1346 8.75887 14.2096 9.04325 14.2802L8.59512 16.0755L9.69231 16.349L10.1464 14.5293C12.0173 14.8834 13.4242 14.7405 14.0164 13.0484C14.4936 11.6859 13.9926 10.8999 13.0082 10.3874C13.7251 10.2221 14.2651 9.75055 14.4092 8.77648V8.77648ZM11.9023 12.2918C11.5632 13.6543 9.26918 12.9177 8.52543 12.733L9.12793 10.3177C9.87168 10.5034 12.2567 10.8709 11.9023 12.2918ZM12.2417 8.7568C11.9323 9.99617 10.0229 9.36648 9.40356 9.21211L9.94981 7.02148C10.5692 7.17586 12.5639 7.46398 12.2417 8.7568V8.7568Z" fill="white"/>
</g>
<defs>
<clipPath id="clip0_309_2453">
<rect width="20" height="20" fill="white" transform="translate(24 0.201172)"/>
</clipPath>
<clipPath id="clip1_309_2453">
<rect width="20" height="20" fill="white" transform="translate(12 0.201172)"/>
</clipPath>
<clipPath id="clip2_309_2453">
<rect width="8" height="14" fill="white" transform="translate(18 3.20117)"/>
</clipPath>
<clipPath id="clip3_309_2453">
<rect width="20" height="20" fill="white" transform="translate(0 0.201172)"/>
</clipPath>
</defs>
</svg>
