<svg width="24" height="24" viewBox="0 0 24 24" fill="none" xmlns="http://www.w3.org/2000/svg">
<circle cx="12" cy="12" r="11" fill="#EBEBEB"/>
<path d="M17.7068 8.08692H16.1416L15.2775 6.7826C14.9514 6.29347 14.3808 6 13.7938 6H10.2069C9.61997 6 9.04933 6.29347 8.72325 6.7826L7.85913 8.08692H6.29394C5.29939 8.08692 4.50049 8.88582 4.50049 9.88037V16.2064C4.50049 17.2009 5.29939 17.9998 6.29394 17.9998H17.7068C18.7013 17.9998 19.5002 17.2009 19.5002 16.2064V9.88037C19.5002 8.88582 18.7013 8.08692 17.7068 8.08692ZM12.0004 16.5324C9.76671 16.5324 7.95695 14.7227 7.95695 12.489C7.95695 10.2554 9.76671 8.46192 12.0004 8.46192C14.234 8.46192 16.0438 10.2717 16.0438 12.5053C16.0438 14.7227 14.234 16.5324 12.0004 16.5324ZM17.4785 10.6141C17.4622 10.6141 17.4459 10.6141 17.4133 10.6141H16.7612C16.4677 10.5978 16.2394 10.3532 16.2557 10.0597C16.272 9.78255 16.484 9.57059 16.7612 9.55429H17.4133C17.7068 9.53799 17.9514 9.76624 17.9677 10.0597C17.984 10.3532 17.772 10.5978 17.4785 10.6141Z" fill="#4F5163"/>
<path d="M12 9.60742C10.3006 9.60742 8.91431 10.9938 8.91431 12.6931C8.91431 14.3925 10.3006 15.7565 12 15.7565C13.6994 15.7565 15.0857 14.3701 15.0857 12.6708C15.0857 10.9714 13.6994 9.60742 12 9.60742Z" fill="#4F5163"/>
</svg>
