<svg width="50" height="50" viewBox="0 0 50 50" fill="none" xmlns="http://www.w3.org/2000/svg">
<circle cx="25" cy="25" r="25" fill="#EFEFF7"/>
<path d="M29.1276 16H20.8724C18.1857 16 16 18.1857 16 20.8724V29.1277C16 31.8143 18.1857 34 20.8724 34H29.1277C31.8143 34 34 31.8143 34 29.1277V20.8724C34 18.1857 31.8143 16 29.1276 16V16ZM25 29.9217C22.2861 29.9217 20.0783 27.7139 20.0783 25C20.0783 22.2861 22.2861 20.0783 25 20.0783C27.7139 20.0783 29.9217 22.2861 29.9217 25C29.9217 27.7139 27.7139 29.9217 25 29.9217ZM30.0394 21.239C29.2374 21.239 28.5851 20.5867 28.5851 19.7847C28.5851 18.9827 29.2374 18.3302 30.0394 18.3302C30.8414 18.3302 31.4939 18.9827 31.4939 19.7847C31.4939 20.5867 30.8414 21.239 30.0394 21.239Z" fill="#A9A9C1"/>
<path d="M25 21.1328C22.8681 21.1328 21.1335 22.8673 21.1335 24.9993C21.1335 27.1312 22.8681 28.8658 25 28.8658C27.1321 28.8658 28.8665 27.1312 28.8665 24.9993C28.8665 22.8673 27.1321 21.1328 25 21.1328Z" fill="#A9A9C1"/>
<path d="M30.0392 19.3828C29.8192 19.3828 29.6401 19.5619 29.6401 19.7819C29.6401 20.0019 29.8192 20.181 30.0392 20.181C30.2594 20.181 30.4384 20.002 30.4384 19.7819C30.4384 19.5618 30.2594 19.3828 30.0392 19.3828Z" fill="#A9A9C1"/>
</svg>
