<svg xmlns="http://www.w3.org/2000/svg" viewBox="0 0 1000.01 618.03"><defs><style>.cls-1{fill:#737373;}.cls-2{fill:#9c9c9c;}.cls-3{fill:#585858;}</style></defs><title>mastercard_logo</title><g id="Слой_2" data-name="Слой 2"><g id="Слой_1-2" data-name="Слой 1"><path class="cls-1" d="M364.81,66.1H635.2V551.94H364.81Z"/><path class="cls-2" d="M382,309c0-98.72,46.35-186.27,117.6-242.92A307.1,307.1,0,0,0,309,0C138.2,0,0,138.2,0,309S138.2,618,309,618a307.16,307.16,0,0,0,190.56-66.09C428.33,496.14,382,407.73,382,309Z"/><path class="cls-3" d="M1000,309c0,170.81-138.2,309-309,309a307.14,307.14,0,0,1-190.56-66.09C572.54,495.28,618,407.73,618,309S571.68,122.75,500.43,66.1A307.08,307.08,0,0,1,691,0C861.81,0,1000,139.06,1000,309Z"/></g></g></svg>