<svg width="24" height="27" viewBox="0 0 24 27" fill="none" xmlns="http://www.w3.org/2000/svg">
<path d="M21.8636 23.1703L12.6566 13.3593L21.8154 3.49217C21.9961 3.29755 21.9954 2.98287 21.8138 2.78925C21.6321 2.59563 21.3384 2.59638 21.1577 2.79099L12.0008 12.6567L2.79235 2.84366C2.61071 2.65005 2.317 2.65079 2.13629 2.8454C1.95558 3.04002 1.95628 3.3547 2.13791 3.54832L11.345 13.3593L2.18708 23.2255C2.00637 23.4201 2.00706 23.7348 2.1887 23.9284C2.37034 24.122 2.66405 24.1213 2.84476 23.9267L12.0008 14.062L21.2073 23.875C21.389 24.0686 21.6827 24.0679 21.8634 23.8733C22.0441 23.6787 22.0434 23.364 21.8618 23.1703H21.8636Z" fill="#4F5163"/>
</svg>
