<svg width="126" height="235" viewBox="0 0 126 235" fill="none" xmlns="http://www.w3.org/2000/svg">
<rect width="126" height="235" fill="url(#paint0_linear_213_2117)"/>
<g clip-path="url(#clip0_213_2117)">
<path d="M87.4766 99.5703H85.8516V98.6777L73.6641 86.4902L66.6777 93.4766L72.7714 99.5703H68.463L52.3359 83.4433L40.1484 95.6308V99.5703H38.5234C37.6816 99.5703 37 100.252 37 101.094C37 101.936 37.6816 102.617 38.5234 102.617H87.4766C88.3184 102.617 89 101.936 89 101.094C89 100.252 88.3184 99.5703 87.4766 99.5703Z" fill="#9E9EB8"/>
<path d="M38.5234 72.0469H40.1484V91.3223L51.2588 80.2119C51.8539 79.6169 52.818 79.6169 53.4131 80.2119L64.5234 91.3223L72.5869 83.2588C73.182 82.6637 74.1461 82.6637 74.7412 83.2588L85.8516 94.3692V72.0469H87.4766C88.3184 72.0469 89 71.3653 89 70.5234C89 69.6816 88.3184 69 87.4766 69H38.5234C37.6816 69 37 69.6816 37 70.5234C37 71.3653 37.6816 72.0469 38.5234 72.0469ZM63 75.1953C65.52 75.1953 67.5703 77.2456 67.5703 79.7656C67.5703 82.2856 65.52 84.3359 63 84.3359C60.48 84.3359 58.4297 82.2856 58.4297 79.7656C58.4297 77.2456 60.48 75.1953 63 75.1953Z" fill="#9E9EB8"/>
<path d="M63 81.2891C63.8407 81.2891 64.5234 80.6063 64.5234 79.7656C64.5234 78.925 63.8407 78.2422 63 78.2422C62.1593 78.2422 61.4766 78.925 61.4766 79.7656C61.4766 80.6063 62.1593 81.2891 63 81.2891Z" fill="#9E9EB8"/>
<path d="M72.6488 105.664L73.1562 108.711H66.0468V105.664H59.9531V108.711C55.9814 108.711 56.8427 108.711 52.8437 108.711L53.3511 105.664H47.2578L45.0829 119.234C44.9329 120.16 45.6486 121 46.5869 121H49.5219C50.2666 121 50.9025 120.461 51.0247 119.727L52.3355 111.758H52.3359H59.9531V119.477C59.9531 120.318 60.6351 121 61.4765 121H64.5234C65.3649 121 66.0468 120.318 66.0468 119.477V111.758H73.6644L74.9752 119.727C75.0978 120.462 75.7334 121 76.478 121H79.4828C80.4243 121 81.1404 120.155 80.9856 119.226L78.7429 105.664H72.6488Z" fill="#9E9EB8"/>
</g>
<defs>
<linearGradient id="paint0_linear_213_2117" x1="63" y1="0" x2="63" y2="235" gradientUnits="userSpaceOnUse">
<stop stop-color="#D6D6E3"/>
<stop offset="1" stop-color="#CDCDDE"/>
</linearGradient>
<clipPath id="clip0_213_2117">
<rect width="52" height="52" fill="white" transform="translate(37 69)"/>
</clipPath>
</defs>
</svg>
