<svg xmlns="http://www.w3.org/2000/svg" viewBox="0 0 87.93 23.43"><defs><style>.cls-1{fill:#585858;}.cls-2{fill:#848484;}</style></defs><title>Paypal_logo</title><g id="Слой_2" data-name="Слой 2"><g id="Layer_1" data-name="Layer 1"><path class="cls-1" d="M10.55,0H3.71a1,1,0,0,0-.94.8L0,18.34A.56.56,0,0,0,.57,19H3.84a1,1,0,0,0,.94-.8l.74-4.73a1,1,0,0,1,.94-.81H8.62c4.51,0,7.11-2.18,7.79-6.5a5.29,5.29,0,0,0-.87-4.41C14.56.61,12.84,0,10.55,0Zm.79,6.41C11,8.86,9.09,8.86,7.28,8.86h-1L7,4.28a.56.56,0,0,1,.56-.48H8c1.23,0,2.4,0,3,.7A2.27,2.27,0,0,1,11.34,6.41Z"/><path class="cls-1" d="M31,6.33H27.72a.56.56,0,0,0-.56.48L27,7.72l-.23-.33C26.07,6.36,24.49,6,22.91,6a7.53,7.53,0,0,0-7.31,6.59,6.19,6.19,0,0,0,1.22,5A5.15,5.15,0,0,0,21,19.3a6.28,6.28,0,0,0,4.53-1.87l-.15.91a.58.58,0,0,0,.57.66h3a1,1,0,0,0,.94-.81L31.56,7A.58.58,0,0,0,31,6.33ZM26.43,12.7a3.66,3.66,0,0,1-3.7,3.13A2.76,2.76,0,0,1,20.54,15,2.8,2.8,0,0,1,20,12.64a3.68,3.68,0,0,1,3.67-3.15,2.79,2.79,0,0,1,2.19.89A2.88,2.88,0,0,1,26.43,12.7Z"/><path class="cls-1" d="M48.44,6.33H45.15a1,1,0,0,0-.79.41l-4.54,6.69L37.9,7A1,1,0,0,0,37,6.33H33.75a.57.57,0,0,0-.54.75l3.62,10.64-3.4,4.81a.57.57,0,0,0,.46.9h3.29A1,1,0,0,0,38,23L48.9,7.22A.56.56,0,0,0,48.44,6.33Z"/><path class="cls-2" d="M59.33,0H52.49a1,1,0,0,0-.94.8L48.79,18.34a.56.56,0,0,0,.56.66h3.51a.67.67,0,0,0,.66-.56l.78-5a1,1,0,0,1,.94-.81H57.4c4.51,0,7.11-2.18,7.79-6.5a5.26,5.26,0,0,0-.87-4.41C63.34.61,61.62,0,59.33,0Zm.79,6.41c-.37,2.45-2.25,2.45-4.06,2.45H55l.72-4.58a.57.57,0,0,1,.57-.48h.47c1.23,0,2.4,0,3,.7A2.27,2.27,0,0,1,60.12,6.41Z"/><path class="cls-2" d="M79.77,6.33H76.5a.56.56,0,0,0-.56.48l-.15.91-.23-.33C74.86,6.36,73.28,6,71.7,6a7.53,7.53,0,0,0-7.31,6.59,6.16,6.16,0,0,0,1.22,5,5.13,5.13,0,0,0,4.12,1.66,6.25,6.25,0,0,0,4.53-1.87l-.14.91a.56.56,0,0,0,.56.66h2.95a1,1,0,0,0,.94-.81L80.34,7A.57.57,0,0,0,79.77,6.33ZM75.21,12.7a3.65,3.65,0,0,1-3.7,3.13A2.77,2.77,0,0,1,69.32,15a2.8,2.8,0,0,1-.52-2.31,3.68,3.68,0,0,1,3.67-3.15,2.79,2.79,0,0,1,2.19.89A2.84,2.84,0,0,1,75.21,12.7Z"/><path class="cls-2" d="M83.64.48,80.83,18.34a.56.56,0,0,0,.56.66h2.82a1,1,0,0,0,.94-.81L87.92.66A.57.57,0,0,0,87.36,0H84.2A.57.57,0,0,0,83.64.48Z"/></g></g></svg>