<svg width="16" height="16" viewBox="0 0 16 16" fill="none" xmlns="http://www.w3.org/2000/svg">
<g clip-path="url(#clip0_286_2808)">
<path d="M15.6097 7.71747L8.2628 7.73751L8.24257 0.388972C8.2422 0.244008 8.12442 0.126784 7.97946 0.127155C7.83449 0.127526 7.71727 0.245306 7.71764 0.390271L7.73805 7.73751L0.389885 7.75736C0.24492 7.75773 0.127695 7.87551 0.128066 8.02048C0.128438 8.16544 0.246219 8.28267 0.391183 8.2823L7.73805 8.26226L7.75827 15.6101C7.75865 15.755 7.87643 15.8722 8.02139 15.8719C8.16636 15.8715 8.28358 15.7537 8.28321 15.6088L8.2628 8.26226L15.6102 8.24315C15.7552 8.24278 15.8724 8.12499 15.872 7.98003C15.8717 7.83506 15.7539 7.71784 15.6089 7.71821L15.6097 7.71747Z" fill="white"/>
</g>
<defs>
<clipPath id="clip0_286_2808">
<rect width="16" height="16" fill="white"/>
</clipPath>
</defs>
</svg>
