<svg width="18" height="18" viewBox="0 0 18 18" fill="none" xmlns="http://www.w3.org/2000/svg">
<path d="M3.60099 17.9835L9 14.9993L14.399 17.9803C14.424 17.994 14.4521 18.0001 14.4802 17.998C14.5083 17.9959 14.5352 17.9855 14.558 17.9682C14.5809 17.9508 14.5986 17.9271 14.6093 17.8998C14.62 17.8724 14.6232 17.8425 14.6186 17.8133L13.5888 11.4982L17.9549 7.02676C17.9749 7.00605 17.989 6.97992 17.9957 6.95128C18.0023 6.92265 18.0013 6.89263 17.9926 6.86458C17.984 6.83654 17.9681 6.81156 17.9468 6.79245C17.9254 6.77334 17.8994 6.76083 17.8716 6.75634L11.8351 5.83374L9.1363 0.0897328C9.1239 0.0628387 9.10454 0.0401574 9.08043 0.0242873C9.05633 0.00841712 9.02845 0 9 0C8.97155 0 8.94368 0.00841712 8.91957 0.0242873C8.89546 0.0401574 8.8761 0.0628387 8.8637 0.0897328L6.16495 5.83533L0.128351 6.75793C0.100615 6.76242 0.0746128 6.77493 0.0532471 6.79404C0.0318814 6.81315 0.0159926 6.83813 0.00735363 6.86617C-0.00128533 6.89422 -0.00233479 6.92424 0.00432278 6.95287C0.0109803 6.98151 0.0250828 7.00764 0.0450565 7.02835L4.41122 11.4998L3.37988 17.8149C3.37526 17.844 3.37848 17.874 3.38918 17.9014C3.39988 17.9287 3.41764 17.9524 3.44045 17.9698C3.46326 17.9871 3.49023 17.9974 3.51832 17.9996C3.54641 18.0017 3.57451 17.9956 3.59947 17.9819L3.60099 17.9835Z" fill="#DF1A1D"/>
</svg>
